<?xml version="1.0" encoding="UTF-8" standalone="no"?>
<!-- Created with Inkscape (http://www.inkscape.org/) -->

<svg
   width="224.98975mm"
   height="149.71886mm"
   viewBox="0 0 224.98974 149.71886"
   version="1.1"
   id="svg1"
   xml:space="preserve"
   xmlns:xlink="http://www.w3.org/1999/xlink"
   xmlns="http://www.w3.org/2000/svg"
   xmlns:svg="http://www.w3.org/2000/svg"><defs
     id="defs1"><linearGradient
       id="linearGradient17"><stop
         style="stop-color:#204287;stop-opacity:1;"
         offset="0"
         id="stop16" /><stop
         style="stop-color:#204287;stop-opacity:0;"
         offset="0.21702127"
         id="stop17" /></linearGradient><linearGradient
       id="linearGradient15"><stop
         style="stop-color:#204287;stop-opacity:1;"
         offset="0"
         id="stop14" /><stop
         style="stop-color:#204287;stop-opacity:0;"
         offset="0.50212765"
         id="stop15" /></linearGradient><linearGradient
       id="linearGradient11"><stop
         style="stop-color:#204287;stop-opacity:1;"
         offset="0"
         id="stop11" /><stop
         style="stop-color:#204287;stop-opacity:0;"
         offset="1"
         id="stop12" /></linearGradient><linearGradient
       xlink:href="#linearGradient11"
       id="linearGradient12"
       x1="-256.99728"
       y1="256.36172"
       x2="-147.27003"
       y2="256.36172"
       gradientUnits="userSpaceOnUse"
       gradientTransform="translate(79.898652,67.506584)" /><linearGradient
       xlink:href="#linearGradient15"
       id="linearGradient13"
       gradientUnits="userSpaceOnUse"
       gradientTransform="translate(379.54047,209.2393)"
       x1="-256.99728"
       y1="256.36172"
       x2="-147.27003"
       y2="256.36172" /><linearGradient
       xlink:href="#linearGradient17"
       id="linearGradient16"
       gradientUnits="userSpaceOnUse"
       gradientTransform="translate(476.31685,390.93719)"
       x1="-256.99728"
       y1="256.36172"
       x2="-147.27003"
       y2="256.36172" /></defs><g
     id="layer1"
     transform="translate(219.26414,-558.92023)"><path
       style="fill:none;stroke:url(#linearGradient12);stroke-width:6;stroke-linecap:round;stroke-dasharray:none;stroke-opacity:1;paint-order:fill markers stroke"
       id="path7-3"
       d="m -178.93581,327.60856 a 69.686378,69.686378 0 0 1 93.448732,-4.48345"
       transform="rotate(17.294068)" /><text
       xml:space="preserve"
       style="font-style:normal;font-variant:normal;font-weight:normal;font-stretch:normal;font-size:43.1467px;font-family:Avenir;-inkscape-font-specification:'Avenir, Normal';font-variant-ligatures:normal;font-variant-caps:normal;font-variant-numeric:normal;font-variant-east-asian:normal;fill:#204287;fill-opacity:1;stroke:#204287;stroke-width:2;stroke-linecap:round;stroke-dasharray:none;stroke-opacity:1;paint-order:fill markers stroke"
       id="text11"
       transform="translate(0.5291667,-8.9958338)"><textPath
         xlink:href="#path7-3"
         id="textPath11"><tspan
           id="tspan11"
           style="font-style:normal;font-variant:normal;font-weight:normal;font-stretch:normal;font-size:43.1467px;font-family:Avenir;-inkscape-font-specification:'Avenir, Normal';font-variant-ligatures:normal;font-variant-caps:normal;font-variant-numeric:normal;font-variant-east-asian:normal;fill:#204287;fill-opacity:1;stroke:#204287;stroke-width:2;stroke-dasharray:none;stroke-opacity:1">unipa</tspan></textPath></text><path
       style="fill:none;stroke:url(#linearGradient13);stroke-width:6;stroke-linecap:round;stroke-dasharray:none;stroke-opacity:1;paint-order:fill markers stroke"
       id="path7-3-8"
       d="M 107.99674,486.70112 A 69.686378,69.686378 0 0 1 199.8746,455.77978"
       transform="rotate(10.442977)" /><text
       xml:space="preserve"
       style="font-style:normal;font-variant:normal;font-weight:normal;font-stretch:normal;font-size:43.1467px;font-family:Avenir;-inkscape-font-specification:'Avenir, Normal';font-variant-ligatures:normal;font-variant-caps:normal;font-variant-numeric:normal;font-variant-east-asian:normal;fill:#204287;fill-opacity:1;stroke:#204287;stroke-width:0.2;stroke-linecap:round;stroke-dasharray:none;stroke-opacity:1;paint-order:fill markers stroke"
       id="text11-9"
       transform="translate(-0.54771891,-8.9947214)"><textPath
         xlink:href="#path7-3-8"
         id="textPath11-2"
         style="font-style:normal;font-variant:normal;font-weight:normal;font-stretch:normal;font-size:43.1467px;font-family:Futura;-inkscape-font-specification:'Futura, Normal';font-variant-ligatures:normal;font-variant-caps:normal;font-variant-numeric:normal;font-variant-east-asian:normal;stroke-width:0.2;stroke-dasharray:none">unipa</textPath></text><path
       style="fill:none;stroke:#204287;stroke-width:6;stroke-linecap:round;stroke-dasharray:none;stroke-opacity:1;paint-order:fill markers stroke"
       id="path7-4-8"
       d="m -48.824223,697.89827 a 69.686378,69.686378 0 0 1 -96.546927,-4.06648 69.686378,69.686378 0 0 1 0.34033,-96.63193"
       transform="rotate(4.611705)" /><path
       style="fill:none;stroke:#204287;stroke-width:6;stroke-linecap:round;stroke-dasharray:none;stroke-opacity:1;paint-order:fill markers stroke"
       id="path7-4-2-6"
       d="m -117.04873,579.59133 a 69.686378,69.686378 0 0 1 61.190192,8.4352 69.686378,69.686378 0 0 1 30.449944,53.74192"
       transform="rotate(4.611705)" /><path
       style="fill:none;stroke:#800000;stroke-width:6;stroke-linecap:round;stroke-dasharray:none;stroke-opacity:1;paint-order:fill markers stroke"
       id="path7-5-2-3"
       d="M 106.04534,673.76358 A 46.746559,46.746559 0 0 1 54.764381,694.57309 46.746559,46.746559 0 0 1 19.564258,651.86801 46.746559,46.746559 0 0 1 49.780477,605.50259 46.746559,46.746559 0 0 1 103.06283,620.4613"
       transform="rotate(18.848725)" /><path
       style="fill:none;stroke:#204287;stroke-width:6;stroke-linecap:round;stroke-dasharray:none;stroke-opacity:1;paint-order:fill markers stroke"
       id="path7-5-2-9-0"
       d="m 554.91609,-367.24478 a 27.014254,27.014254 0 0 1 -29.35377,14.14345 27.014254,27.014254 0 0 1 -21.60944,-24.38674 27.014254,27.014254 0 0 1 17.57266,-27.43871 27.014254,27.014254 0 0 1 31.18977,9.42761"
       transform="rotate(138.59152)" /><path
       style="fill:none;stroke:url(#linearGradient16);stroke-width:6;stroke-linecap:round;stroke-dasharray:none;stroke-opacity:1;paint-order:fill markers stroke"
       id="path7-3-8-9"
       d="m 204.77314,668.39899 a 69.686378,69.686378 0 0 1 91.87785,-30.92133"
       transform="rotate(25.602003)" /><path
       style="font-size:43.1467px;font-family:Futura;-inkscape-font-specification:'Futura, Normal';fill:#800000;stroke:none;stroke-width:0.2;stroke-linecap:round;paint-order:fill markers stroke"
       d="m -106.47836,657.68937 5.42046,10.45528 c 1.564407,3.0175 3.537402,3.9089 5.918987,2.67419 2.381585,-1.23472 2.790177,-3.36083 1.225773,-6.37833 l -5.420459,-10.45529 4.208301,-2.18176 5.468943,10.5488 c 0.756344,1.45888 1.228453,2.81199 1.41633,4.05933 0.142167,1.12865 -0.01976,2.29631 -0.485795,3.50297 -0.781489,1.97139 -2.269505,3.52594 -4.464056,4.66369 -2.182081,1.13128 -4.30385,1.44819 -6.365302,0.9507 -1.267172,-0.30808 -2.327212,-0.84222 -3.180102,-1.60241 -0.78872,-0.66689 -1.6162,-1.83576 -2.48244,-3.50661 l -5.46894,-10.5488 z m 23.767224,-9.8627 4.714839,-0.6636 0.264262,1.87759 c 1.412126,-1.85823 3.147387,-2.9322 5.205779,-3.22191 2.364374,-0.33277 4.311918,0.15194 5.842636,1.45415 1.318596,1.10511 2.179515,3.0902 2.582758,5.95527 l 1.752938,12.45467 -4.714837,0.6636 -1.597316,-11.34899 c -0.28188,-2.00276 -0.754813,-3.34746 -1.418797,-4.03411 -0.652035,-0.70251 -1.694318,-0.95295 -3.126855,-0.75131 -1.557704,0.21924 -2.590967,0.88946 -3.099791,2.01065 -0.496876,1.10534 -0.567178,2.92364 -0.210916,5.45491 l 1.380035,9.80519 -4.714838,0.6636 z m 33.306365,-1.34392 -2.192074,20.40255 -4.713112,-0.50638 2.192073,-20.40255 z m -4.513829,-9.0665 c 0.08853,-0.82393 0.465292,-1.50387 1.130288,-2.03984 0.665002,-0.53596 1.416447,-0.75894 2.254335,-0.66892 0.851852,0.0915 1.545768,0.46976 2.081731,1.13479 0.537469,0.65104 0.760441,1.40248 0.668918,2.25433 -0.09152,0.85186 -0.469793,1.54577 -1.134789,2.08173 -0.651038,0.53747 -1.402484,0.76045 -2.254335,0.66892 -0.851852,-0.0915 -1.545768,-0.46976 -2.08173,-1.13478 -0.535969,-0.66501 -0.757441,-1.43042 -0.664418,-2.29623 z m 8.828139,42.05874 -4.419867,-1.71308 11.451026,-29.54434 4.419863,1.71309 -0.807055,2.08225 c 2.416838,-1.06668 4.731859,-1.17111 6.945065,-0.3133 2.632275,1.02024 4.424035,2.82938 5.375282,5.42743 0.982513,2.5951 0.905281,5.35939 -0.231702,8.29288 -1.111603,2.868 -2.895717,4.92553 -5.352347,6.1726 -2.438458,1.23905 -4.954182,1.35607 -7.547167,0.35106 -2.239399,-0.86797 -3.895378,-2.54163 -4.967937,-5.02101 z m 18.206917,-15.78659 c 0.710611,-1.83342 0.791612,-3.51924 0.242994,-5.05743 -0.556638,-1.55637 -1.601064,-2.6315 -3.133285,-3.22537 -1.623892,-0.62939 -3.158288,-0.57639 -4.603191,0.15902 -1.444902,0.73541 -2.522662,2.01983 -3.233274,3.85325 -0.695385,1.79414 -0.764761,3.4694 -0.208124,5.02576 0.553692,1.52511 1.642484,2.60236 3.266376,3.23176 1.532219,0.59387 3.019309,0.50746 4.461268,-0.25921 1.468149,-0.75653 2.53723,-1.99912 3.207236,-3.72778 z m 29.0963544,7.23173 3.5127669,3.21411 -13.851954,15.13909 -3.5127693,-3.2141 1.450616,-1.58541 c -2.672888,0.0292 -4.838304,-0.71469 -6.496247,-2.23168 -2.093155,-1.91519 -3.131508,-4.25498 -3.115065,-7.01936 0.05525,-2.78599 1.140021,-5.33436 3.254317,-7.64512 2.07637,-2.26931 4.485402,-3.53939 7.2270917,-3.81024 2.7416893,-0.27084 5.1332049,0.52763 7.1745465,2.39542 1.76156598,1.61179 2.67811283,3.78302 2.74964073,6.51368 z m -15.1833934,-0.0715 c -1.327362,1.4507 -2.019632,2.98753 -2.076811,4.61048 -0.04594,1.65228 0.537281,3.03307 1.749652,4.14236 1.295269,1.18514 2.749536,1.69717 4.3627978,1.53608 1.6417072,-0.19218 3.1120192,-0.99808 4.4109382,-2.4177 1.2989164,-1.41961 1.9713431,-2.95556 2.0172802,-4.60784 0.026975,-1.63156 -0.5968107,-3.03042 -1.8713549,-4.1966 -1.202009,-1.09982 -2.624308,-1.56355 -4.2668969,-1.39121 -1.6417074,0.19218 -3.0835774,0.96699 -4.3256054,2.32443 z"
       id="text11-9-6"
       aria-label="unipa" /><circle
       style="fill:none;fill-opacity:1;stroke:#204287;stroke-width:5.9448;stroke-linecap:round;stroke-dasharray:none;stroke-opacity:1;paint-order:fill markers stroke"
       id="path13-8"
       cx="-19.962732"
       cy="597.42633"
       r="9.5276003"
       transform="rotate(15.159026)" /><circle
       style="fill:none;fill-opacity:1;stroke:#800000;stroke-width:6;stroke-linecap:round;stroke-dasharray:none;stroke-opacity:1;paint-order:fill markers stroke"
       id="path13-8-3"
       cx="66.381615"
       cy="634.86206"
       r="8.3858461"
       transform="rotate(15.159026)" /><circle
       style="fill:none;fill-opacity:1;stroke:#204287;stroke-width:6;stroke-linecap:round;stroke-dasharray:none;stroke-opacity:1;paint-order:fill markers stroke"
       id="path13-9-4"
       cx="6.184989"
       cy="673.9115"
       r="7.6234965"
       transform="rotate(15.159026)" /><path
       id="path3-5-0-1-6-4-8-6"
       style="fill:none;stroke:none;stroke-width:4.82997;stroke-linecap:round;stroke-linejoin:round;stroke-opacity:0.444162"
       d="m -465.79202,927.9127 a 42.682926,42.682926 0 0 0 60.23745,-3.88778 42.682926,42.682926 0 0 0 -3.88779,-60.23744 42.682926,42.682926 0 0 0 -60.23743,3.88778 42.682926,42.682926 0 0 0 3.88777,60.23744 z" /><text
       xml:space="preserve"
       style="font-style:normal;font-variant:normal;font-weight:normal;font-stretch:normal;font-size:24.6944px;font-family:Futura;-inkscape-font-specification:'Futura, Normal';font-variant-ligatures:normal;font-variant-caps:normal;font-variant-numeric:normal;font-variant-east-asian:normal;fill:#00689f;fill-opacity:1;stroke:none;stroke-width:6.00001;stroke-linecap:round;stroke-dasharray:none;stroke-opacity:0.772549;paint-order:fill markers stroke"
       id="text37"
       transform="translate(1.5875,-4.7625002)"><textPath
         xlink:href="#path3-5-0-1-6-4-8-6"
         id="textPath37"><tspan
           id="tspan37"
           style="font-style:normal;font-variant:normal;font-weight:normal;font-stretch:normal;font-size:24.6944px;font-family:Futura;-inkscape-font-specification:'Futura, Normal';font-variant-ligatures:normal;font-variant-caps:normal;font-variant-numeric:normal;font-variant-east-asian:normal;fill:#00689f;fill-opacity:1;stroke:none;stroke-width:6;stroke-linecap:round">unipa</tspan></textPath></text><path
       id="path3-5-0-1-6-4-8-6-4"
       style="fill:none;stroke:none;stroke-width:4.82997;stroke-linecap:round;stroke-linejoin:round;stroke-opacity:0.444162"
       d="m -443.40814,1051.2421 a 42.682926,42.682926 0 0 0 60.23745,-3.8878 42.682926,42.682926 0 0 0 -3.88779,-60.2375 42.682926,42.682926 0 0 0 -60.23743,3.88775 42.682926,42.682926 0 0 0 3.88777,60.23755 z" /><text
       xml:space="preserve"
       style="font-style:normal;font-variant:normal;font-weight:normal;font-stretch:normal;font-size:24.6944px;font-family:Futura;-inkscape-font-specification:'Futura, Normal';font-variant-ligatures:normal;font-variant-caps:normal;font-variant-numeric:normal;font-variant-east-asian:normal;fill:#00689f;fill-opacity:1;stroke:none;stroke-width:6.00001;stroke-linecap:round;stroke-dasharray:none;stroke-opacity:0.772549;paint-order:fill markers stroke"
       id="text37-3"
       transform="translate(1.5875,-5.8208334)"><textPath
         xlink:href="#path3-5-0-1-6-4-8-6-4"
         id="textPath37-4"><tspan
           id="tspan37-4"
           style="font-style:normal;font-variant:normal;font-weight:normal;font-stretch:normal;font-size:24.6944px;font-family:Futura;-inkscape-font-specification:'Futura, Normal';font-variant-ligatures:normal;font-variant-caps:normal;font-variant-numeric:normal;font-variant-east-asian:normal;fill:#00689f;fill-opacity:1;stroke:none;stroke-width:6;stroke-linecap:round">unipa</tspan></textPath></text><path
       id="path3-5-0-1-6-4-8-6-4-7"
       style="fill:none;stroke:none;stroke-width:4.82997;stroke-linecap:round;stroke-linejoin:round;stroke-opacity:0.444162"
       d="m -460.24931,1220.8004 a 42.682926,42.682926 0 0 0 60.23745,-3.8878 42.682926,42.682926 0 0 0 -3.88779,-60.2375 42.682926,42.682926 0 0 0 -60.23743,3.8878 42.682926,42.682926 0 0 0 3.88777,60.2375 z" /><text
       xml:space="preserve"
       style="font-style:normal;font-variant:normal;font-weight:normal;font-stretch:normal;font-size:24.6944px;font-family:Futura;-inkscape-font-specification:'Futura, Normal';font-variant-ligatures:normal;font-variant-caps:normal;font-variant-numeric:normal;font-variant-east-asian:normal;fill:#00689f;fill-opacity:1;stroke:none;stroke-width:6.00001;stroke-linecap:round;stroke-dasharray:none;stroke-opacity:0.772549;paint-order:fill markers stroke"
       id="text37-3-4"
       transform="translate(1.5875,-7.4083301)"><textPath
         xlink:href="#path3-5-0-1-6-4-8-6-4-7"
         id="textPath37-4-3"><tspan
           id="tspan37-4-1"
           style="font-style:normal;font-variant:normal;font-weight:normal;font-stretch:normal;font-size:24.6944px;font-family:Futura;-inkscape-font-specification:'Futura, Normal';font-variant-ligatures:normal;font-variant-caps:normal;font-variant-numeric:normal;font-variant-east-asian:normal;fill:#00689f;fill-opacity:1;stroke:none;stroke-width:6;stroke-linecap:round">unipa</tspan></textPath></text><path
       id="path3-5-0-1-6-4-8-6-4-7-3"
       style="fill:none;stroke:none;stroke-width:4.82997;stroke-linecap:round;stroke-linejoin:round;stroke-opacity:0.444162"
       d="m -665.56599,1411.0358 a 42.682926,42.682926 0 0 0 60.23745,-3.8878 42.682926,42.682926 0 0 0 -3.88779,-60.2375 42.682926,42.682926 0 0 0 -60.23743,3.8878 42.682926,42.682926 0 0 0 3.88777,60.2375 z" /><text
       xml:space="preserve"
       style="font-style:normal;font-variant:normal;font-weight:normal;font-stretch:normal;font-size:24.6944px;font-family:Futura;-inkscape-font-specification:'Futura, Normal';font-variant-ligatures:normal;font-variant-caps:normal;font-variant-numeric:normal;font-variant-east-asian:normal;fill:#00689f;fill-opacity:1;stroke:none;stroke-width:6.00001;stroke-linecap:round;stroke-dasharray:none;stroke-opacity:0.772549;paint-order:fill markers stroke"
       id="text37-3-4-2"
       transform="translate(1.5875,-7.40833)"><textPath
         xlink:href="#path3-5-0-1-6-4-8-6-4-7-3"
         id="textPath37-4-3-8"><tspan
           id="tspan37-4-1-8"
           style="font-style:normal;font-variant:normal;font-weight:normal;font-stretch:normal;font-size:24.6944px;font-family:Futura;-inkscape-font-specification:'Futura, Normal';font-variant-ligatures:normal;font-variant-caps:normal;font-variant-numeric:normal;font-variant-east-asian:normal;fill:#00689f;fill-opacity:1;stroke:none;stroke-width:6;stroke-linecap:round">unipa</tspan></textPath></text></g></svg>
