<?xml version="1.0" encoding="UTF-8" standalone="no"?>
<!-- Created with Inkscape (http://www.inkscape.org/) -->

<svg
   width="224.98969mm"
   height="149.7189mm"
   viewBox="0 0 224.98968 149.71891"
   version="1.1"
   id="svg1"
   xml:space="preserve"
   xmlns:xlink="http://www.w3.org/1999/xlink"
   xmlns="http://www.w3.org/2000/svg"
   xmlns:svg="http://www.w3.org/2000/svg"><defs
     id="defs1"><linearGradient
       id="linearGradient17"><stop
         style="stop-color:#204287;stop-opacity:1;"
         offset="0"
         id="stop16" /><stop
         style="stop-color:#204287;stop-opacity:0;"
         offset="0.21702127"
         id="stop17" /></linearGradient><linearGradient
       id="linearGradient15"><stop
         style="stop-color:#204287;stop-opacity:1;"
         offset="0"
         id="stop14" /><stop
         style="stop-color:#204287;stop-opacity:0;"
         offset="0.50212765"
         id="stop15" /></linearGradient><linearGradient
       id="linearGradient11"><stop
         style="stop-color:#204287;stop-opacity:1;"
         offset="0"
         id="stop11" /><stop
         style="stop-color:#204287;stop-opacity:0;"
         offset="1"
         id="stop12" /></linearGradient><linearGradient
       xlink:href="#linearGradient11"
       id="linearGradient12"
       x1="-256.99728"
       y1="256.36172"
       x2="-147.27003"
       y2="256.36172"
       gradientUnits="userSpaceOnUse"
       gradientTransform="translate(79.898652,67.506584)" /><linearGradient
       xlink:href="#linearGradient15"
       id="linearGradient13"
       gradientUnits="userSpaceOnUse"
       gradientTransform="translate(379.54047,209.2393)"
       x1="-256.99728"
       y1="256.36172"
       x2="-147.27003"
       y2="256.36172" /><linearGradient
       xlink:href="#linearGradient17"
       id="linearGradient18"
       gradientUnits="userSpaceOnUse"
       gradientTransform="translate(735.56272,306.02655)"
       x1="-256.99728"
       y1="256.36172"
       x2="-147.27003"
       y2="256.36172" /><filter
       style="color-interpolation-filters:sRGB"
       id="filter19"
       x="-0.013447781"
       y="-0.020659773"
       width="1.0134478"
       height="1.0414404"><feColorMatrix
         values="-4.69136 0.864198 1.23457 0.308642 0 -4.69136 0.864198 1.23457 0.308642 0 -4.69136 0.864198 1.23457 0.308642 0 0 0 0 1 0 "
         id="feColorMatrix19" /></filter></defs><g
     id="layer1"
     transform="translate(-51.219662,-594.37093)"><path
       style="fill:none;stroke:url(#linearGradient12);stroke-width:6;stroke-linecap:round;stroke-dasharray:none;stroke-opacity:1;paint-order:fill markers stroke"
       id="path7-3"
       d="m -178.93581,327.60856 a 69.686378,69.686378 0 0 1 93.448732,-4.48345"
       transform="rotate(17.294068)" /><text
       xml:space="preserve"
       style="font-style:normal;font-variant:normal;font-weight:normal;font-stretch:normal;font-size:43.1467px;font-family:Avenir;-inkscape-font-specification:'Avenir, Normal';font-variant-ligatures:normal;font-variant-caps:normal;font-variant-numeric:normal;font-variant-east-asian:normal;fill:#204287;fill-opacity:1;stroke:#204287;stroke-width:2;stroke-linecap:round;stroke-dasharray:none;stroke-opacity:1;paint-order:fill markers stroke"
       id="text11"
       transform="translate(0.5291667,-8.9958338)"><textPath
         xlink:href="#path7-3"
         id="textPath11"><tspan
           id="tspan11"
           style="font-style:normal;font-variant:normal;font-weight:normal;font-stretch:normal;font-size:43.1467px;font-family:Avenir;-inkscape-font-specification:'Avenir, Normal';font-variant-ligatures:normal;font-variant-caps:normal;font-variant-numeric:normal;font-variant-east-asian:normal;fill:#204287;fill-opacity:1;stroke:#204287;stroke-width:2;stroke-dasharray:none;stroke-opacity:1">unipa</tspan></textPath></text><path
       style="fill:none;stroke:url(#linearGradient13);stroke-width:6;stroke-linecap:round;stroke-dasharray:none;stroke-opacity:1;paint-order:fill markers stroke"
       id="path7-3-8"
       d="M 107.99674,486.70112 A 69.686378,69.686378 0 0 1 199.8746,455.77978"
       transform="rotate(10.442977)" /><text
       xml:space="preserve"
       style="font-style:normal;font-variant:normal;font-weight:normal;font-stretch:normal;font-size:43.1467px;font-family:Avenir;-inkscape-font-specification:'Avenir, Normal';font-variant-ligatures:normal;font-variant-caps:normal;font-variant-numeric:normal;font-variant-east-asian:normal;fill:#204287;fill-opacity:1;stroke:#204287;stroke-width:0.2;stroke-linecap:round;stroke-dasharray:none;stroke-opacity:1;paint-order:fill markers stroke"
       id="text11-9"
       transform="translate(-0.54771891,-8.9947214)"><textPath
         xlink:href="#path7-3-8"
         id="textPath11-2"
         style="font-style:normal;font-variant:normal;font-weight:normal;font-stretch:normal;font-size:43.1467px;font-family:Futura;-inkscape-font-specification:'Futura, Normal';font-variant-ligatures:normal;font-variant-caps:normal;font-variant-numeric:normal;font-variant-east-asian:normal;stroke-width:0.2;stroke-dasharray:none">unipa</textPath></text><g
       id="g18"
       style="filter:url(#filter19)"><path
         style="fill:none;stroke:#204287;stroke-width:6;stroke-linecap:round;stroke-dasharray:none;stroke-opacity:1;paint-order:fill markers stroke"
         id="path7-4-8-3"
         d="m 223.63421,711.48665 a 69.686378,69.686378 0 0 1 -96.54693,-4.06648 69.686378,69.686378 0 0 1 0.34034,-96.63193"
         transform="rotate(4.611705)" /><path
         style="fill:none;stroke:#204287;stroke-width:6;stroke-linecap:round;stroke-dasharray:none;stroke-opacity:1;paint-order:fill markers stroke"
         id="path7-4-2-6-0"
         d="m 155.4097,593.17971 a 69.686378,69.686378 0 0 1 61.1902,8.4352 69.686378,69.686378 0 0 1 30.44994,53.74191"
         transform="rotate(4.611705)" /><path
         style="fill:none;stroke:#800000;stroke-width:6;stroke-linecap:round;stroke-dasharray:none;stroke-opacity:1;paint-order:fill markers stroke"
         id="path7-5-2-3-4"
         d="m 373.47748,619.92788 a 46.746559,46.746559 0 0 1 -51.28095,20.80951 46.746559,46.746559 0 0 1 -35.20013,-42.70507 46.746559,46.746559 0 0 1 30.21622,-46.36543 46.746559,46.746559 0 0 1 53.28236,14.95871"
         transform="rotate(18.848725)" /><path
         style="fill:none;stroke:#204287;stroke-width:6;stroke-linecap:round;stroke-dasharray:none;stroke-opacity:1;paint-order:fill markers stroke"
         id="path7-5-2-9-0-4"
         d="m 375.49761,-572.73749 a 27.014254,27.014254 0 0 1 -29.35378,14.14346 27.014254,27.014254 0 0 1 -21.60943,-24.38675 27.014254,27.014254 0 0 1 17.57266,-27.43871 27.014254,27.014254 0 0 1 31.18976,9.42761"
         transform="rotate(138.59152)" /><path
         style="fill:none;stroke:url(#linearGradient18);stroke-width:6;stroke-linecap:round;stroke-dasharray:none;stroke-opacity:1;paint-order:fill markers stroke"
         id="path7-3-8-9-3"
         d="m 464.01902,583.48835 a 69.686378,69.686378 0 0 1 91.87785,-30.92134"
         transform="rotate(25.602003)" /><path
         style="font-size:43.1467px;font-family:Futura;-inkscape-font-specification:'Futura, Normal';fill:#800000;stroke:none;stroke-width:0.2;stroke-linecap:round;paint-order:fill markers stroke"
         d="m 164.00544,693.14009 5.42046,10.45528 c 1.56441,3.0175 3.5374,3.9089 5.91899,2.67419 2.38158,-1.23472 2.79017,-3.36083 1.22577,-6.37833 l -5.42046,-10.45529 4.2083,-2.18176 5.46894,10.5488 c 0.75635,1.45888 1.22846,2.81199 1.41633,4.05933 0.14217,1.12865 -0.0198,2.29631 -0.48579,3.50297 -0.78149,1.97139 -2.26951,3.52594 -4.46406,4.66369 -2.18208,1.13128 -4.30385,1.44819 -6.3653,0.9507 -1.26717,-0.30808 -2.32721,-0.84222 -3.1801,-1.60241 -0.78872,-0.66689 -1.6162,-1.83576 -2.48244,-3.50661 l -5.46894,-10.5488 z m 23.76722,-9.8627 4.71484,-0.6636 0.26426,1.87759 c 1.41213,-1.85823 3.14739,-2.9322 5.20578,-3.22191 2.36438,-0.33277 4.31192,0.15194 5.84264,1.45415 1.3186,1.10511 2.17951,3.0902 2.58276,5.95527 l 1.75294,12.45467 -4.71484,0.6636 -1.59732,-11.34899 c -0.28188,-2.00276 -0.75481,-3.34746 -1.41879,-4.03411 -0.65204,-0.70251 -1.69432,-0.95295 -3.12686,-0.75131 -1.5577,0.21924 -2.59097,0.88946 -3.09979,2.01065 -0.49688,1.10534 -0.56718,2.92364 -0.21092,5.45491 l 1.38004,9.80519 -4.71484,0.6636 z m 33.30637,-1.34392 -2.19208,20.40255 -4.71311,-0.50638 2.19208,-20.40255 z m -4.51383,-9.0665 c 0.0885,-0.82393 0.46529,-1.50387 1.13029,-2.03984 0.665,-0.53596 1.41644,-0.75894 2.25433,-0.66892 0.85185,0.0915 1.54577,0.46976 2.08173,1.13479 0.53747,0.65104 0.76044,1.40248 0.66892,2.25433 -0.0915,0.85186 -0.46979,1.54577 -1.13479,2.08173 -0.65104,0.53747 -1.40248,0.76045 -2.25433,0.66892 -0.85185,-0.0915 -1.54577,-0.46976 -2.08173,-1.13478 -0.53597,-0.66501 -0.75744,-1.43042 -0.66442,-2.29623 z m 8.82814,42.05874 -4.41987,-1.71308 11.45103,-29.54434 4.41986,1.71309 -0.80705,2.08225 c 2.41683,-1.06668 4.73185,-1.17111 6.94506,-0.3133 2.63228,1.02024 4.42404,2.82938 5.37528,5.42743 0.98252,2.5951 0.90528,5.35939 -0.2317,8.29288 -1.1116,2.868 -2.89572,4.92553 -5.35235,6.1726 -2.43845,1.23905 -4.95418,1.35607 -7.54716,0.35106 -2.2394,-0.86797 -3.89538,-2.54163 -4.96794,-5.02101 z m 18.20692,-15.78659 c 0.71061,-1.83342 0.79161,-3.51924 0.24299,-5.05743 -0.55664,-1.55637 -1.60106,-2.6315 -3.13329,-3.22537 -1.62389,-0.62939 -3.15828,-0.57639 -4.60319,0.15902 -1.4449,0.73541 -2.52266,2.01983 -3.23327,3.85325 -0.69539,1.79414 -0.76476,3.4694 -0.20812,5.02576 0.55369,1.52511 1.64248,2.60236 3.26637,3.23176 1.53222,0.59387 3.01931,0.50746 4.46127,-0.25921 1.46815,-0.75653 2.53723,-1.99912 3.20724,-3.72778 z m 29.09635,7.23173 3.51277,3.21411 -13.85196,15.13909 -3.51277,-3.2141 1.45062,-1.58541 c -2.67289,0.0292 -4.8383,-0.71469 -6.49625,-2.23168 -2.09315,-1.91519 -3.13151,-4.25498 -3.11506,-7.01936 0.0553,-2.78599 1.14002,-5.33436 3.25431,-7.64512 2.07637,-2.26931 4.48541,-3.53939 7.2271,-3.81024 2.74169,-0.27084 5.1332,0.52763 7.17454,2.39542 1.76157,1.61179 2.67812,3.78302 2.74964,6.51368 z m -15.18339,-0.0715 c -1.32737,1.4507 -2.01964,2.98753 -2.07681,4.61048 -0.0459,1.65228 0.53728,3.03307 1.74965,4.14236 1.29527,1.18514 2.74953,1.69717 4.3628,1.53608 1.6417,-0.19218 3.11201,-0.99808 4.41093,-2.4177 1.29892,-1.41961 1.97135,-2.95556 2.01728,-4.60784 0.027,-1.63156 -0.59681,-3.03042 -1.87135,-4.1966 -1.20201,-1.09982 -2.62431,-1.56355 -4.2669,-1.39121 -1.64171,0.19218 -3.08358,0.96699 -4.3256,2.32443 z"
         id="text11-9-6-3"
         aria-label="unipa" /><circle
         style="fill:none;fill-opacity:1;stroke:#204287;stroke-width:5.9448;stroke-linecap:round;stroke-dasharray:none;stroke-opacity:1;paint-order:fill markers stroke"
         id="path13-8-2"
         cx="250.37958"
         cy="560.91223"
         r="9.5276003"
         transform="rotate(15.159026)" /><circle
         style="fill:none;fill-opacity:1;stroke:#800000;stroke-width:6;stroke-linecap:round;stroke-dasharray:none;stroke-opacity:1;paint-order:fill markers stroke"
         id="path13-8-3-9"
         cx="336.72391"
         cy="598.34796"
         r="8.3858461"
         transform="rotate(15.159026)" /><circle
         style="fill:none;fill-opacity:1;stroke:#204287;stroke-width:6;stroke-linecap:round;stroke-dasharray:none;stroke-opacity:1;paint-order:fill markers stroke"
         id="path13-9-4-7"
         cx="276.52728"
         cy="637.3974"
         r="7.6234965"
         transform="rotate(15.159026)" /></g><path
       id="path3-5-0-1-6-4-8-6"
       style="fill:none;stroke:none;stroke-width:4.82997;stroke-linecap:round;stroke-linejoin:round;stroke-opacity:0.444162"
       d="m -465.79202,927.9127 a 42.682926,42.682926 0 0 0 60.23745,-3.88778 42.682926,42.682926 0 0 0 -3.88779,-60.23744 42.682926,42.682926 0 0 0 -60.23743,3.88778 42.682926,42.682926 0 0 0 3.88777,60.23744 z" /><text
       xml:space="preserve"
       style="font-style:normal;font-variant:normal;font-weight:normal;font-stretch:normal;font-size:24.6944px;font-family:Futura;-inkscape-font-specification:'Futura, Normal';font-variant-ligatures:normal;font-variant-caps:normal;font-variant-numeric:normal;font-variant-east-asian:normal;fill:#00689f;fill-opacity:1;stroke:none;stroke-width:6.00001;stroke-linecap:round;stroke-dasharray:none;stroke-opacity:0.772549;paint-order:fill markers stroke"
       id="text37"
       transform="translate(1.5875,-4.7625002)"><textPath
         xlink:href="#path3-5-0-1-6-4-8-6"
         id="textPath37"><tspan
           id="tspan37"
           style="font-style:normal;font-variant:normal;font-weight:normal;font-stretch:normal;font-size:24.6944px;font-family:Futura;-inkscape-font-specification:'Futura, Normal';font-variant-ligatures:normal;font-variant-caps:normal;font-variant-numeric:normal;font-variant-east-asian:normal;fill:#00689f;fill-opacity:1;stroke:none;stroke-width:6;stroke-linecap:round">unipa</tspan></textPath></text><path
       id="path3-5-0-1-6-4-8-6-4"
       style="fill:none;stroke:none;stroke-width:4.82997;stroke-linecap:round;stroke-linejoin:round;stroke-opacity:0.444162"
       d="m -443.40814,1051.2421 a 42.682926,42.682926 0 0 0 60.23745,-3.8878 42.682926,42.682926 0 0 0 -3.88779,-60.2375 42.682926,42.682926 0 0 0 -60.23743,3.88775 42.682926,42.682926 0 0 0 3.88777,60.23755 z" /><text
       xml:space="preserve"
       style="font-style:normal;font-variant:normal;font-weight:normal;font-stretch:normal;font-size:24.6944px;font-family:Futura;-inkscape-font-specification:'Futura, Normal';font-variant-ligatures:normal;font-variant-caps:normal;font-variant-numeric:normal;font-variant-east-asian:normal;fill:#00689f;fill-opacity:1;stroke:none;stroke-width:6.00001;stroke-linecap:round;stroke-dasharray:none;stroke-opacity:0.772549;paint-order:fill markers stroke"
       id="text37-3"
       transform="translate(1.5875,-5.8208334)"><textPath
         xlink:href="#path3-5-0-1-6-4-8-6-4"
         id="textPath37-4"><tspan
           id="tspan37-4"
           style="font-style:normal;font-variant:normal;font-weight:normal;font-stretch:normal;font-size:24.6944px;font-family:Futura;-inkscape-font-specification:'Futura, Normal';font-variant-ligatures:normal;font-variant-caps:normal;font-variant-numeric:normal;font-variant-east-asian:normal;fill:#00689f;fill-opacity:1;stroke:none;stroke-width:6;stroke-linecap:round">unipa</tspan></textPath></text><path
       id="path3-5-0-1-6-4-8-6-4-7"
       style="fill:none;stroke:none;stroke-width:4.82997;stroke-linecap:round;stroke-linejoin:round;stroke-opacity:0.444162"
       d="m -460.24931,1220.8004 a 42.682926,42.682926 0 0 0 60.23745,-3.8878 42.682926,42.682926 0 0 0 -3.88779,-60.2375 42.682926,42.682926 0 0 0 -60.23743,3.8878 42.682926,42.682926 0 0 0 3.88777,60.2375 z" /><text
       xml:space="preserve"
       style="font-style:normal;font-variant:normal;font-weight:normal;font-stretch:normal;font-size:24.6944px;font-family:Futura;-inkscape-font-specification:'Futura, Normal';font-variant-ligatures:normal;font-variant-caps:normal;font-variant-numeric:normal;font-variant-east-asian:normal;fill:#00689f;fill-opacity:1;stroke:none;stroke-width:6.00001;stroke-linecap:round;stroke-dasharray:none;stroke-opacity:0.772549;paint-order:fill markers stroke"
       id="text37-3-4"
       transform="translate(1.5875,-7.4083301)"><textPath
         xlink:href="#path3-5-0-1-6-4-8-6-4-7"
         id="textPath37-4-3"><tspan
           id="tspan37-4-1"
           style="font-style:normal;font-variant:normal;font-weight:normal;font-stretch:normal;font-size:24.6944px;font-family:Futura;-inkscape-font-specification:'Futura, Normal';font-variant-ligatures:normal;font-variant-caps:normal;font-variant-numeric:normal;font-variant-east-asian:normal;fill:#00689f;fill-opacity:1;stroke:none;stroke-width:6;stroke-linecap:round">unipa</tspan></textPath></text><path
       id="path3-5-0-1-6-4-8-6-4-7-3"
       style="fill:none;stroke:none;stroke-width:4.82997;stroke-linecap:round;stroke-linejoin:round;stroke-opacity:0.444162"
       d="m -665.56599,1411.0358 a 42.682926,42.682926 0 0 0 60.23745,-3.8878 42.682926,42.682926 0 0 0 -3.88779,-60.2375 42.682926,42.682926 0 0 0 -60.23743,3.8878 42.682926,42.682926 0 0 0 3.88777,60.2375 z" /><text
       xml:space="preserve"
       style="font-style:normal;font-variant:normal;font-weight:normal;font-stretch:normal;font-size:24.6944px;font-family:Futura;-inkscape-font-specification:'Futura, Normal';font-variant-ligatures:normal;font-variant-caps:normal;font-variant-numeric:normal;font-variant-east-asian:normal;fill:#00689f;fill-opacity:1;stroke:none;stroke-width:6.00001;stroke-linecap:round;stroke-dasharray:none;stroke-opacity:0.772549;paint-order:fill markers stroke"
       id="text37-3-4-2"
       transform="translate(1.5875,-7.40833)"><textPath
         xlink:href="#path3-5-0-1-6-4-8-6-4-7-3"
         id="textPath37-4-3-8"><tspan
           id="tspan37-4-1-8"
           style="font-style:normal;font-variant:normal;font-weight:normal;font-stretch:normal;font-size:24.6944px;font-family:Futura;-inkscape-font-specification:'Futura, Normal';font-variant-ligatures:normal;font-variant-caps:normal;font-variant-numeric:normal;font-variant-east-asian:normal;fill:#00689f;fill-opacity:1;stroke:none;stroke-width:6;stroke-linecap:round">unipa</tspan></textPath></text></g></svg>
