<?xml version="1.0" encoding="UTF-8" standalone="no"?>
<!-- Created with Inkscape (http://www.inkscape.org/) -->

<svg
   width="335.78067mm"
   height="420.67587mm"
   viewBox="0 0 335.78067 420.67587"
   version="1.1"
   id="svg1"
   sodipodi:docname="drawing.svg"
   inkscape:version="1.3.2 (091e20e, 2023-11-25)"
   xmlns:inkscape="http://www.inkscape.org/namespaces/inkscape"
   xmlns:sodipodi="http://sodipodi.sourceforge.net/DTD/sodipodi-0.dtd"
   xmlns="http://www.w3.org/2000/svg"
   xmlns:svg="http://www.w3.org/2000/svg">
  <sodipodi:namedview
     id="namedview1"
     pagecolor="#ffffff"
     bordercolor="#000000"
     borderopacity="0.25"
     inkscape:showpageshadow="2"
     inkscape:pageopacity="0.0"
     inkscape:pagecheckerboard="0"
     inkscape:deskcolor="#d1d1d1"
     inkscape:document-units="mm"
     inkscape:zoom="0.077288895"
     inkscape:cx="-3493.3867"
     inkscape:cy="20067.566"
     inkscape:window-width="1312"
     inkscape:window-height="587"
     inkscape:window-x="37"
     inkscape:window-y="25"
     inkscape:window-maximized="0"
     inkscape:current-layer="layer1"
     showguides="false"
     inkscape:export-bgcolor="#797979f9" />
  <defs
     id="defs1" />
  <g
     inkscape:label="Layer 1"
     inkscape:groupmode="layer"
     id="layer1"
     transform="translate(41.731343,-4021.8014)">
    <g
       id="g141"
       transform="translate(230.10077,366.31782)">
      <g
         id="g121-0-3"
         transform="translate(354.54165,-85.19574)">
        <path
           d="m -584.80821,3740.6792 c -22.96906,0 -41.46052,18.4915 -41.46052,41.4606 v 252.7551 l 0.18552,41.4605 h 335.3046 l 0.18552,-41.4605 v -252.7551 c 0,-22.9691 -18.49146,-41.4606 -41.46052,-41.4606 z m 7.6879,47.2561 h 97.17185 c 27.09827,0 48.91381,21.8155 48.91381,48.9138 l -0.51573,131.6658 h 15.58871 v -78.9998 c 0,-17.3707 13.98441,-31.3552 31.3552,-31.3552 v 5e-4 h 62.28973 c 17.37079,0 31.3552,13.984 31.3552,31.3547 v 62.2897 c 0,17.3708 -13.98441,31.3558 -31.3552,31.3558 l -62.28973,0.1018 h -16.36541 v 93.0578 h -13.98675 v -93.0578 h -1.00304 v -0.3644 h -15.64504 v 0.037 h -145.5136 c -27.09817,0 -48.91432,-21.8154 -48.91432,-48.9138 v -97.1723 c 0,-27.0983 21.81605,-48.9138 48.91432,-48.9138 z"
           style="stroke-width:14.3242;stroke-linecap:round;stroke-linejoin:bevel;paint-order:stroke markers fill"
           id="path109-84-2-5"
           sodipodi:nodetypes="ssccccssscscccsscsssccccccccccssssc" />
        <path
           d="m -377.13148,3873.1719 v 5e-4 c -13.20179,0 -23.83007,10.6284 -23.83007,23.8301 v 71.2479 h 23.83007 l 47.34026,-0.078 c 13.20178,0 23.82956,-10.6283 23.82956,-23.83 v -47.3403 c 0,-13.2018 -10.62777,-23.8301 -23.82956,-23.8301 z"
           style="mix-blend-mode:hue;fill:#0238a5;stroke-width:11.6845;stroke-linecap:round;stroke-linejoin:bevel;paint-order:stroke markers fill"
           id="path120-3-4-4" />
        <path
           d="m -570.02565,3802.1732 c -23.14107,0 -41.77058,18.6299 -41.77058,41.771 v 82.9821 c 0,23.1411 18.62951,41.7711 41.77058,41.7711 h 124.26425 l 0.48886,-124.7532 c 0,-23.1411 -18.62992,-41.771 -41.77109,-41.771 z"
           style="fill:#872b20;fill-opacity:1;stroke-width:13.4762;stroke-linecap:round;stroke-linejoin:bevel;paint-order:stroke markers fill"
           id="path119-7-2-4" />
      </g>
      <g
         id="g121">
        <rect
           style="fill:none;stroke:#000000;stroke-width:7.94602;stroke-linecap:round;stroke-linejoin:bevel;stroke-dasharray:none;stroke-opacity:1;paint-order:stroke markers fill"
           id="rect1-8-1-5-6-2"
           width="62.009926"
           height="62.009926"
           x="-253.60312"
           y="3998.7869"
           ry="5.6127086" />
        <path
           style="fill:none;stroke:#000000;stroke-width:7.94602;stroke-linecap:round;stroke-linejoin:bevel;stroke-dasharray:none;stroke-opacity:1;paint-order:stroke markers fill"
           d="m -206.45215,4060.8508 h 29.94934"
           id="path5-7-9-7-9-1"
           sodipodi:nodetypes="cc" />
      </g>
      <path
         id="rect1-9-7-2-4-0-2-6"
         style="fill:none;stroke:#000000;stroke-width:7.94602;stroke-linecap:round;stroke-linejoin:bevel;stroke-dasharray:none;stroke-opacity:1;paint-order:stroke markers fill"
         d="m -111.76585,4060.8508 v -33.9666 c 0,-3.6941 -0.44457,-3.2495 3.24952,-3.2495 h 28.838655 c 3.6941,0 6.66809,2.974 6.66809,6.6681 v 30.548"
         sodipodi:nodetypes="cssssc" />
      <path
         id="rect1-9-7-2-4-1-6-9-7"
         style="fill:none;stroke:#000000;stroke-width:7.94602;stroke-linecap:round;stroke-linejoin:bevel;stroke-dasharray:none;stroke-opacity:1;paint-order:stroke markers fill"
         d="m -163.51245,4023.616 v 33.9666 c 0,3.6941 -0.44458,3.2495 3.24952,3.2495 h 28.83863 c 3.6941,0 6.66809,-2.974 6.66809,-6.6681 v -30.548"
         sodipodi:nodetypes="cssssc" />
      <path
         style="fill:none;stroke:#000000;stroke-width:7.94602;stroke-linecap:round;stroke-linejoin:bevel;stroke-dasharray:none;stroke-opacity:1;paint-order:stroke markers fill"
         d="m -60.037969,4023.3759 v 37.4749"
         id="path6-8-0-0-4-5" />
      <g
         id="g123"
         transform="translate(0,11.015599)">
        <path
           id="rect1-9-7-1-6-4-1-9-6-9"
           style="fill:none;stroke:#000000;stroke-width:7.94602;stroke-linecap:round;stroke-linejoin:bevel;stroke-dasharray:none;stroke-opacity:1;paint-order:stroke markers fill"
           d="M 4.7338963,4011.0656 H 36.991134 c 3.69409,0 6.668033,2.9739 6.668033,6.668 v 31.0607 c 0,1.231 0.215543,1.0275 -0.856494,1.0275 H 11.571001 c -3.6940937,0 -6.6680357,-2.974 -6.6680357,-6.6681 v -12.6006"
           sodipodi:nodetypes="cssccssc" />
        <path
           style="fill:none;stroke:#000000;stroke-width:7.94602;stroke-linecap:round;stroke-linejoin:bevel;stroke-dasharray:none;stroke-opacity:1;paint-order:stroke markers fill"
           d="M 43.248844,4030.4581 H 5.7739723"
           id="path6-0-5-5-2-6-3" />
      </g>
      <g
         id="g122"
         transform="translate(0.49063235)">
        <path
           id="rect1-9-7-1-1-9-3-2-09"
           style="fill:none;stroke:#000000;stroke-width:7.94598;stroke-linecap:round;stroke-linejoin:bevel;stroke-dasharray:none;stroke-opacity:1;paint-order:stroke markers fill"
           d="m -44.235052,4010.9101 h 28.838684 c 3.69409,0 6.6680363,2.9739 6.6680363,6.668 v 25.4201 c 0,3.6942 -2.9739463,6.6681 -6.6680363,6.6681 h -28.838684 c -3.69409,0 -3.249486,-2.9739 -3.249486,-6.6681 v -28.8386 c 0,-3.6941 -0.444604,-3.2495 3.249486,-3.2495 z"
           sodipodi:nodetypes="sssssssss" />
        <path
           style="fill:none;stroke:#000000;stroke-width:7.94598;stroke-linecap:round;stroke-linejoin:bevel;stroke-dasharray:none;stroke-opacity:1;paint-order:stroke markers fill"
           d="m -47.557006,4032.6429 v 37.4749"
           id="path6-6-0-0-7-3-9" />
      </g>
      <path
         id="rect121"
         style="fill:none;stroke:#000000;stroke-width:4.02215;stroke-linejoin:bevel;paint-order:stroke markers fill"
         d="m 61.832794,3960.6113 v 107.9263 c 0,3.1083 -2.502295,5.6106 -5.610527,5.6106 H -264.21052 c -3.10823,0 -5.61052,-2.5023 -5.61052,-5.6106 v -107.9263"
         sodipodi:nodetypes="cssssc" />
    </g>
  </g>
</svg>
